<?xml version="1.0" encoding="UTF-8"?>
<svg width="64px" height="61px" viewBox="0 0 64 61" version="1.1" xmlns="http://www.w3.org/2000/svg" xmlns:xlink="http://www.w3.org/1999/xlink">
    <title>bottles</title>
    <g id="Pattern-Library" stroke="none" stroke-width="1" fill="none" fill-rule="evenodd">
        <g id="Artboard" transform="translate(-304.000000, -211.000000)" fill="#226FB7" fill-rule="nonzero">
            <path d="M321.437268,237.427019 C323.571838,237.427019 325.319508,239.104594 325.423467,241.206975 L325.428359,241.40528 L325.428359,245.24146 C325.428359,246.108749 324.760138,246.820469 323.908891,246.892984 L323.765405,246.899068 L321.722,246.898223 L321.722346,248.155062 L323.57529,248.912036 C324.450768,249.261101 325.199719,249.828717 325.77168,250.537599 C326.272135,249.926827 326.908766,249.416224 327.650549,249.048436 L327.933585,248.917293 L329.799555,248.154589 L329.799,246.898223 L327.756496,246.899068 C326.88641,246.899068 326.172395,246.232996 326.099645,245.384484 L326.093541,245.24146 L326.093541,241.40528 C326.093541,239.277572 327.776527,237.53552 329.885688,237.431895 L330.084633,237.427019 L341.96288,237.427019 C344.09745,237.427019 345.845001,239.104594 345.948953,241.225633 L345.953845,241.425742 L345.906332,245.261922 C345.895685,246.121585 345.229918,246.821763 344.385766,246.893085 L344.243504,246.899068 L342.2,246.898223 L342.200445,248.155062 L344.053389,248.912036 C344.941004,249.265941 345.69856,249.844497 346.273465,250.567162 C346.776122,249.944627 347.41995,249.424096 348.17212,249.050441 L348.459198,248.917293 L350.324692,248.155062 L350.324,246.898223 L348.282108,246.899068 C347.412022,246.899068 346.698007,246.232996 346.625258,245.384484 L346.619154,245.24146 L346.619154,241.40528 C346.619154,239.277572 348.30214,237.53552 350.411301,237.431895 L350.610245,237.427019 L362.488493,237.427019 C364.623063,237.427019 366.370733,239.104594 366.474692,241.206975 L366.479584,241.40528 L366.479584,245.24146 C366.479584,246.108749 365.811363,246.820469 364.960116,246.892984 L364.81663,246.899068 L362.725,246.898223 L362.725583,248.154589 L364.579002,248.912036 C366.52334,249.687271 367.843604,251.54047 367.987015,253.625045 L367.998079,253.857574 L368,254.003106 L368,270.342391 C368,271.209681 367.331779,271.9214 366.480531,271.993916 L366.337045,272 L346.71418,272 C346.557813,272 346.406487,271.978488 346.263018,271.938271 C346.167562,271.965015 346.068335,271.983535 345.966351,271.992911 L345.811433,272 L326.188567,272 C326.040623,272 325.897191,271.980743 325.760657,271.944606 C325.669577,271.968757 325.575614,271.985326 325.47936,271.993689 L325.333333,272 L305.710296,272 C304.84021,272 304.126195,271.333927 304.053445,270.485416 L304.047341,270.342391 L304.046489,264.81319 C304.016101,264.687868 304,264.556988 304,264.42236 C304,264.287954 304.016048,264.157285 304.046339,264.032151 L304.046489,255.814743 C304.016101,255.689421 304,255.558541 304,255.423913 C304,255.289602 304.016026,255.159022 304.046275,255.033969 L304.047341,254.003106 C304.047341,251.86795 305.288345,249.954035 307.236178,249.017314 L307.455486,248.917293 L309.32098,248.155062 L309.32,246.898223 L307.230883,246.899068 C306.360797,246.899068 305.646782,246.232996 305.574033,245.384484 L305.567929,245.24146 L305.567929,241.40528 C305.567929,239.277572 307.250915,237.53552 309.360076,237.431895 L309.55902,237.427019 L321.437268,237.427019 Z M364.673,266.079361 L348.377,266.079361 L348.377,268.684783 L364.673615,268.684783 L364.673,266.079361 Z M344.148,266.079361 L327.851,266.079361 L327.851522,268.684783 L344.148478,268.684783 L344.148,266.079361 Z M323.67,266.079361 L307.372,266.079361 L307.372947,268.684783 L323.670379,268.684783 L323.67,266.079361 Z M364.674,257.081381 L348.377,257.081381 L348.377,262.764054 L364.674,262.764054 L364.674,257.081381 Z M323.67,257.081381 L307.373,257.081381 L307.373,262.764054 L323.67,262.764054 L323.67,257.081381 Z M344.148,257.081381 L327.851,257.081381 L327.851,262.764054 L344.148,262.764054 L344.148,257.081381 Z M359.352635,258.265528 C360.27106,258.265528 361.01559,259.007665 361.01559,259.923137 C361.01559,260.808093 360.319868,261.531077 359.443877,261.578293 L359.352635,261.580745 L353.651076,261.580745 C352.732652,261.580745 351.988122,260.838609 351.988122,259.923137 C351.988122,259.03818 352.683844,258.315196 353.559835,258.267981 L353.651076,258.265528 L359.352635,258.265528 Z M338.874536,258.265528 C339.792961,258.265528 340.537491,259.007665 340.537491,259.923137 C340.537491,260.808093 339.841769,261.531077 338.965778,261.578293 L338.874536,261.580745 L333.125464,261.580745 C332.207039,261.580745 331.462509,260.838609 331.462509,259.923137 C331.462509,259.03818 332.158231,258.315196 333.034222,258.267981 L333.125464,258.265528 L338.874536,258.265528 Z M318.348924,258.265528 C319.267348,258.265528 320.011878,259.007665 320.011878,259.923137 C320.011878,260.808093 319.316156,261.531077 318.440165,261.578293 L318.348924,261.580745 L312.647365,261.580745 C311.72894,261.580745 310.98441,260.838609 310.98441,259.923137 C310.98441,259.03818 311.680132,258.315196 312.556123,258.267981 L312.647365,258.265528 L318.348924,258.265528 Z M359.399673,246.946429 L353.650601,246.946429 L353.651076,249.267081 C353.651076,249.858464 353.335857,250.398293 352.835373,250.693485 L352.706467,250.762075 L352.618753,250.800875 L349.751032,251.972035 C348.987233,252.301951 348.476638,252.985328 348.390178,253.766399 L364.661291,253.766399 C364.585299,253.065812 364.176333,252.441246 363.578985,252.103853 L363.425807,252.02561 L360.432472,250.800875 C359.852617,250.563993 359.45952,250.02456 359.406322,249.410106 L359.400148,249.267081 L359.399673,246.946429 Z M318.396437,246.946429 L312.646889,246.946429 L312.647365,249.267081 C312.647365,249.858464 312.332145,250.398293 311.831661,250.693485 L311.702756,250.762075 L311.615041,250.800875 L308.74732,251.972035 C307.983447,252.301983 307.472771,252.985405 307.386296,253.766399 L323.657579,253.766399 C323.581587,253.065812 323.172621,252.441246 322.575273,252.103853 L322.422095,252.02561 L319.42876,250.800875 C318.848905,250.563993 318.455808,250.02456 318.40261,249.410106 L318.396437,249.267081 L318.396437,246.946429 Z M338.874536,246.946429 L333.125464,246.946429 L333.125464,249.267081 C333.125464,249.858464 332.810245,250.398293 332.309761,250.693485 L332.180855,250.762075 L332.093141,250.800875 L329.22542,251.972035 C328.461621,252.301951 327.951026,252.985328 327.864565,253.766399 L344.135678,253.766399 C344.059687,253.065812 343.650721,252.441246 343.053372,252.103853 L342.900194,252.02561 L339.906859,250.800875 C339.327004,250.563993 338.933907,250.02456 338.880709,249.410106 L338.874536,249.267081 L338.874536,246.946429 Z M362.488493,240.742236 L350.610245,240.742236 C350.278948,240.742236 350.000272,240.989995 349.952342,241.307961 L349.945063,241.40528 L349.944588,243.583377 L363.1532,243.583377 L363.153675,241.40528 C363.153675,241.097581 362.93788,240.835421 362.650384,240.762428 L362.552094,240.7453 L362.488493,240.742236 Z M321.437268,240.742236 L309.55902,240.742236 C309.227723,240.742236 308.949047,240.989995 308.901117,241.307961 L308.893838,241.40528 L308.893363,243.583377 L322.101975,243.583377 L322.10245,241.40528 C322.10245,241.097581 321.886655,240.835421 321.599159,240.762428 L321.500869,240.7453 L321.437268,240.742236 Z M341.96288,240.742236 L330.084633,240.742236 C329.753336,240.742236 329.47466,240.989995 329.426729,241.307961 L329.419451,241.40528 L329.418976,243.583377 L342.60098,243.583377 L342.628062,241.40528 C342.628062,241.097581 342.412268,240.835421 342.124772,240.762428 L342.026482,240.7453 L341.96288,240.742236 Z M321.437268,211 C323.571838,211 325.319508,212.677575 325.423467,214.779956 L325.428359,214.978261 L325.428359,218.814441 C325.428359,219.68173 324.760138,220.39345 323.908891,220.465965 L323.765405,220.47205 L321.722,220.471453 L321.722346,221.728043 L323.57529,222.485017 C324.391131,222.810305 325.147316,223.30209 325.772214,223.907405 C326.344486,223.359654 327.029096,222.900204 327.774325,222.560388 L327.912175,222.499196 L329.799555,221.697259 L329.799,220.471453 L327.756496,220.47205 C326.88641,220.47205 326.172395,219.805977 326.099645,218.957466 L326.093541,218.814441 L326.093541,214.978261 C326.093541,212.850553 327.776527,211.108502 329.885688,211.004877 L330.084633,211 L341.96288,211 C344.09745,211 345.845001,212.677575 345.948953,214.798615 L345.953845,214.998724 L345.906332,218.834904 C345.895685,219.694566 345.229918,220.394744 344.385766,220.466066 L344.243504,220.47205 L342.2,220.471453 L342.200445,221.728043 L344.053389,222.485017 C344.869669,222.81048 345.626229,223.302619 346.251321,223.908381 C346.836415,223.337107 347.544685,222.857915 348.320011,222.504664 L348.459198,222.442914 L350.325167,221.68021 L350.325,220.471453 L348.282108,220.47205 C347.412022,220.47205 346.698007,219.805977 346.625258,218.957466 L346.619154,218.814441 L346.619154,214.978261 C346.619154,212.850553 348.30214,211.108502 350.411301,211.004877 L350.610245,211 L362.488493,211 C364.623063,211 366.370733,212.677575 366.474692,214.779956 L366.479584,214.978261 L366.479584,218.814441 C366.479584,219.68173 365.811363,220.39345 364.960116,220.465965 L364.81663,220.47205 L362.726,220.471453 L362.726058,221.728043 L364.579002,222.485017 C366.595353,223.288965 367.940545,225.252205 367.998079,227.430555 L368,227.576087 L368,234.443323 C368,235.358795 367.25547,236.100932 366.337045,236.100932 C365.449235,236.100932 364.723919,235.407446 364.676551,234.534271 L364.674091,234.443323 L364.674,230.653614 L347.949,230.653614 L347.949517,233.496118 C347.949517,234.363407 347.281296,235.075127 346.430049,235.147642 L346.23905,235.153727 L346.23905,235.153727 C345.351239,235.153727 344.625924,234.460241 344.578556,233.587066 L344.576095,233.496118 L344.576,230.653614 L327.471,230.653614 L327.471418,233.496118 C327.471418,234.41159 326.726888,235.153727 325.808463,235.153727 L325.713437,235.153727 L325.713437,235.153727 C324.825627,235.153727 324.100311,234.460241 324.052943,233.587066 L324.050483,233.496118 L324.05,230.653614 L307.325,230.653614 L307.325909,234.443323 C307.325909,235.358795 306.581379,236.100932 305.662955,236.100932 C304.775144,236.100932 304.049829,235.407446 304.002461,234.534271 L304,234.443323 L304,227.576087 C304,225.411035 305.275835,223.47349 307.259178,222.556371 L307.395495,222.495431 L309.321455,221.690155 L309.321,220.471453 L307.230883,220.47205 C306.360797,220.47205 305.646782,219.805977 305.574033,218.957466 L305.567929,218.814441 L305.567929,214.978261 C305.567929,212.850553 307.250915,211.108502 309.360076,211.004877 L309.55902,211 L321.437268,211 Z M359.400148,220.47205 L353.651076,220.47205 L353.651076,222.792702 C353.651076,223.433367 353.281132,224.013528 352.706467,224.287696 L352.618753,224.326496 L349.751032,225.497656 C348.8174,225.90093 348.097122,226.648926 347.935901,227.276517 C347.940316,227.29671 347.941647,227.317614 347.942825,227.338539 L364.661182,227.338384 C364.578552,226.579824 364.105562,225.910524 363.425807,225.598591 L363.330764,225.557862 L360.432472,224.373856 C359.837749,224.130901 359.439484,223.569679 359.402902,222.935677 L359.400148,222.840062 L359.400148,220.47205 Z M318.396437,220.47205 L312.647365,220.47205 L312.647365,222.792702 C312.647365,223.4287 312.28272,224.005547 311.714291,224.282133 L311.627519,224.321339 L308.699807,225.545017 C307.936377,225.874773 307.425906,226.55765 307.339078,227.338186 L324.057,227.338307 L324.069307,227.183816 C323.856208,226.59998 323.218149,225.949192 322.435186,225.603301 L322.327052,225.557862 L319.42876,224.373856 C318.834037,224.130901 318.435772,223.569679 318.39919,222.935677 L318.396437,222.840062 L318.396437,220.47205 Z M338.874536,220.47205 L333.125464,220.47205 L333.125464,222.792702 C333.125464,223.425352 332.7646,223.99981 332.200648,224.278085 L332.114551,224.317575 L329.22542,225.545017 C328.35667,225.920265 327.672651,226.593988 327.451885,227.191447 C327.458332,227.240188 327.461955,227.289308 327.464725,227.338539 L344.581,227.338307 L344.582353,227.297888 L344.582353,227.297888 C344.418029,226.687351 343.748004,225.97205 342.913285,225.603301 L342.805152,225.557862 L339.906859,224.373856 C339.312136,224.130901 338.913871,223.569679 338.87729,222.935677 L338.874536,222.840062 L338.874536,220.47205 Z M341.96288,214.315217 L330.084633,214.315217 C329.753336,214.315217 329.47466,214.562977 329.426729,214.880942 L329.419451,214.978261 L329.418976,217.156832 L342.60098,217.156832 L342.628062,214.978261 C342.628062,214.670563 342.412268,214.408402 342.124772,214.335409 L342.026482,214.318281 L341.96288,214.315217 Z M321.437268,214.315217 L309.55902,214.315217 C309.227723,214.315217 308.949047,214.562977 308.901117,214.880942 L308.893838,214.978261 L308.893363,217.156832 L322.101975,217.156832 L322.10245,214.978261 C322.10245,214.670563 321.886655,214.408402 321.599159,214.335409 L321.500869,214.318281 L321.437268,214.315217 Z M362.488493,214.315217 L350.610245,214.315217 C350.278948,214.315217 350.000272,214.562977 349.952342,214.880942 L349.945063,214.978261 L349.944588,217.156832 L363.1532,217.156832 L363.153675,214.978261 C363.153675,214.670563 362.93788,214.408402 362.650384,214.335409 L362.552094,214.318281 L362.488493,214.315217 Z" id="bottles"></path>
        </g>
    </g>
</svg>